<svg width="22" height="17" viewBox="0 0 22 17" fill="none" xmlns="http://www.w3.org/2000/svg">
<path d="M20.1667 0H1.83333C0.821181 0 0 0.815848 0 1.82143V2.42857H22V1.82143C22 0.815848 21.1788 0 20.1667 0ZM0 15.1786C0 16.1842 0.821181 17 1.83333 17H20.1667C21.1788 17 22 16.1842 22 15.1786V3.64286H0V15.1786ZM13.4444 6.375C13.4444 6.20804 13.5819 6.07143 13.75 6.07143H19.25C19.4181 6.07143 19.5556 6.20804 19.5556 6.375V6.98214C19.5556 7.14911 19.4181 7.28571 19.25 7.28571H13.75C13.5819 7.28571 13.4444 7.14911 13.4444 6.98214V6.375ZM13.4444 8.80357C13.4444 8.63661 13.5819 8.5 13.75 8.5H19.25C19.4181 8.5 19.5556 8.63661 19.5556 8.80357V9.41071C19.5556 9.57768 19.4181 9.71429 19.25 9.71429H13.75C13.5819 9.71429 13.4444 9.57768 13.4444 9.41071V8.80357ZM13.4444 11.2321C13.4444 11.0652 13.5819 10.9286 13.75 10.9286H19.25C19.4181 10.9286 19.5556 11.0652 19.5556 11.2321V11.8393C19.5556 12.0063 19.4181 12.1429 19.25 12.1429H13.75C13.5819 12.1429 13.4444 12.0063 13.4444 11.8393V11.2321ZM6.72222 6.07143C8.07049 6.07143 9.16667 7.16049 9.16667 8.5C9.16667 9.83951 8.07049 10.9286 6.72222 10.9286C5.37396 10.9286 4.27778 9.83951 4.27778 8.5C4.27778 7.16049 5.37396 6.07143 6.72222 6.07143ZM2.56285 13.8201C2.88368 12.8449 3.80417 12.1429 4.88889 12.1429H5.20208C5.67188 12.3364 6.18368 12.4464 6.72222 12.4464C7.26076 12.4464 7.77639 12.3364 8.24236 12.1429H8.55556C9.64028 12.1429 10.5608 12.8449 10.8816 13.8201C11.0038 14.1958 10.683 14.5714 10.2858 14.5714H3.15868C2.76146 14.5714 2.44062 14.192 2.56285 13.8201Z" fill="#333333"/>
</svg>
