<svg width="16" height="18" viewBox="0 0 16 18" fill="none" xmlns="http://www.w3.org/2000/svg">
<path d="M15.5714 16.875H14.8571V0.84375C14.8571 0.377754 14.4734 0 14 0H2C1.52661 0 1.14286 0.377754 1.14286 0.84375V16.875H0.428571C0.191893 16.875 0 17.0639 0 17.2969V18H16V17.2969C16 17.0639 15.8081 16.875 15.5714 16.875ZM4.57143 2.67188C4.57143 2.43889 4.76332 2.25 5 2.25H6.42857C6.66525 2.25 6.85714 2.43889 6.85714 2.67188V4.07812C6.85714 4.31111 6.66525 4.5 6.42857 4.5H5C4.76332 4.5 4.57143 4.31111 4.57143 4.07812V2.67188ZM4.57143 6.04688C4.57143 5.81389 4.76332 5.625 5 5.625H6.42857C6.66525 5.625 6.85714 5.81389 6.85714 6.04688V7.45312C6.85714 7.68611 6.66525 7.875 6.42857 7.875H5C4.76332 7.875 4.57143 7.68611 4.57143 7.45312V6.04688ZM6.42857 11.25H5C4.76332 11.25 4.57143 11.0611 4.57143 10.8281V9.42188C4.57143 9.18889 4.76332 9 5 9H6.42857C6.66525 9 6.85714 9.18889 6.85714 9.42188V10.8281C6.85714 11.0611 6.66525 11.25 6.42857 11.25ZM9.14286 16.875H6.85714V13.9219C6.85714 13.6889 7.04904 13.5 7.28571 13.5H8.71429C8.95096 13.5 9.14286 13.6889 9.14286 13.9219V16.875ZM11.4286 10.8281C11.4286 11.0611 11.2367 11.25 11 11.25H9.57143C9.33475 11.25 9.14286 11.0611 9.14286 10.8281V9.42188C9.14286 9.18889 9.33475 9 9.57143 9H11C11.2367 9 11.4286 9.18889 11.4286 9.42188V10.8281ZM11.4286 7.45312C11.4286 7.68611 11.2367 7.875 11 7.875H9.57143C9.33475 7.875 9.14286 7.68611 9.14286 7.45312V6.04688C9.14286 5.81389 9.33475 5.625 9.57143 5.625H11C11.2367 5.625 11.4286 5.81389 11.4286 6.04688V7.45312ZM11.4286 4.07812C11.4286 4.31111 11.2367 4.5 11 4.5H9.57143C9.33475 4.5 9.14286 4.31111 9.14286 4.07812V2.67188C9.14286 2.43889 9.33475 2.25 9.57143 2.25H11C11.2367 2.25 11.4286 2.43889 11.4286 2.67188V4.07812Z" fill="#333333"/>
</svg>
