<svg width="24" height="21" viewBox="0 0 24 21" fill="none" xmlns="http://www.w3.org/2000/svg">
<path d="M12.2579 11.3908C13.0078 11.5958 13.7037 11.9404 14.3203 12.4039L21.0492 10.1971C21.3992 10.0823 21.5867 9.709 21.47 9.36855L18.9535 1.93606C18.8368 1.59151 18.4576 1.40692 18.1118 1.52177L15.5661 2.35855L16.9452 6.43575L14.4161 7.26022L13.037 3.18301L10.4704 4.02388C10.1205 4.13873 9.93296 4.512 10.0496 4.85245L12.2579 11.3908ZM23.9658 13.3883L23.5408 12.1414C23.4241 11.7968 23.045 11.6122 22.6991 11.7271L13.8036 14.6476C13.087 13.7452 11.9871 13.1545 10.7413 13.1299L6.59975 0.898298C6.41643 0.36096 5.90811 0 5.33313 0H0.666642C0.299989 0 0 0.295331 0 0.656291V1.96887C0 2.32983 0.299989 2.62516 0.666642 2.62516H4.37067L8.21219 13.9749C7.12473 14.8117 6.47476 16.1735 6.71225 17.687C6.96641 19.3032 8.29136 20.6527 9.93296 20.9357C12.4412 21.3746 14.612 19.5082 14.6578 17.1374L23.5449 14.2169C23.8908 14.1021 24.0824 13.7329 23.9658 13.3883ZM10.6663 19.0324C9.56214 19.0324 8.66634 18.1505 8.66634 17.0636C8.66634 15.9766 9.56214 15.0947 10.6663 15.0947C11.7704 15.0947 12.6662 15.9766 12.6662 17.0636C12.6662 18.1505 11.7704 19.0324 10.6663 19.0324Z" fill="#333333"/>
</svg>
