<svg width="16" height="18" viewBox="0 0 16 18" fill="none" xmlns="http://www.w3.org/2000/svg">
<path d="M5.28571 10.125H3.85714C3.62143 10.125 3.42857 9.93516 3.42857 9.70312V8.29688C3.42857 8.06484 3.62143 7.875 3.85714 7.875H5.28571C5.52143 7.875 5.71429 8.06484 5.71429 8.29688V9.70312C5.71429 9.93516 5.52143 10.125 5.28571 10.125ZM9.14286 9.70312V8.29688C9.14286 8.06484 8.95 7.875 8.71429 7.875H7.28571C7.05 7.875 6.85714 8.06484 6.85714 8.29688V9.70312C6.85714 9.93516 7.05 10.125 7.28571 10.125H8.71429C8.95 10.125 9.14286 9.93516 9.14286 9.70312ZM12.5714 9.70312V8.29688C12.5714 8.06484 12.3786 7.875 12.1429 7.875H10.7143C10.4786 7.875 10.2857 8.06484 10.2857 8.29688V9.70312C10.2857 9.93516 10.4786 10.125 10.7143 10.125H12.1429C12.3786 10.125 12.5714 9.93516 12.5714 9.70312ZM9.14286 13.0781V11.6719C9.14286 11.4398 8.95 11.25 8.71429 11.25H7.28571C7.05 11.25 6.85714 11.4398 6.85714 11.6719V13.0781C6.85714 13.3102 7.05 13.5 7.28571 13.5H8.71429C8.95 13.5 9.14286 13.3102 9.14286 13.0781ZM5.71429 13.0781V11.6719C5.71429 11.4398 5.52143 11.25 5.28571 11.25H3.85714C3.62143 11.25 3.42857 11.4398 3.42857 11.6719V13.0781C3.42857 13.3102 3.62143 13.5 3.85714 13.5H5.28571C5.52143 13.5 5.71429 13.3102 5.71429 13.0781ZM12.5714 13.0781V11.6719C12.5714 11.4398 12.3786 11.25 12.1429 11.25H10.7143C10.4786 11.25 10.2857 11.4398 10.2857 11.6719V13.0781C10.2857 13.3102 10.4786 13.5 10.7143 13.5H12.1429C12.3786 13.5 12.5714 13.3102 12.5714 13.0781ZM16 3.9375V16.3125C16 17.2441 15.2321 18 14.2857 18H1.71429C0.767857 18 0 17.2441 0 16.3125V3.9375C0 3.00586 0.767857 2.25 1.71429 2.25H3.42857V0.421875C3.42857 0.189844 3.62143 0 3.85714 0H5.28571C5.52143 0 5.71429 0.189844 5.71429 0.421875V2.25H10.2857V0.421875C10.2857 0.189844 10.4786 0 10.7143 0H12.1429C12.3786 0 12.5714 0.189844 12.5714 0.421875V2.25H14.2857C15.2321 2.25 16 3.00586 16 3.9375ZM14.2857 16.1016V5.625H1.71429V16.1016C1.71429 16.2176 1.81071 16.3125 1.92857 16.3125H14.0714C14.1893 16.3125 14.2857 16.2176 14.2857 16.1016Z" fill="#333333"/>
</svg>
