<svg width="27" height="27" viewBox="0 0 27 27" fill="none" xmlns="http://www.w3.org/2000/svg">
<path d="M13.2478 0C5.92944 0 0 5.91633 0 13.2185C0 20.5206 5.92944 26.4369 13.2478 26.4369C20.5661 26.4369 26.4955 20.5206 26.4955 13.2185C26.4955 5.91633 20.5661 0 13.2478 0ZM13.2478 5.11682C15.8439 5.11682 17.9486 7.21685 17.9486 9.80724C17.9486 12.3976 15.8439 14.4977 13.2478 14.4977C10.6516 14.4977 8.54694 12.3976 8.54694 9.80724C8.54694 7.21685 10.6516 5.11682 13.2478 5.11682ZM13.2478 23.4521C10.1121 23.4521 7.3023 22.0343 5.42197 19.817C6.42623 17.9302 8.39203 16.6297 10.6837 16.6297C10.8119 16.6297 10.9401 16.651 11.063 16.6883C11.7574 16.9122 12.4839 17.0561 13.2478 17.0561C14.0116 17.0561 14.7435 16.9122 15.4326 16.6883C15.5554 16.651 15.6836 16.6297 15.8118 16.6297C18.1035 16.6297 20.0693 17.9302 21.0736 19.817C19.1932 22.0343 16.3834 23.4521 13.2478 23.4521Z" fill="white"/>
</svg>
