<svg width="31" height="28" viewBox="0 0 31 28" fill="none" xmlns="http://www.w3.org/2000/svg">
<path d="M15.7157 14.8015C16.6772 15.068 17.5693 15.5157 18.3599 16.118L26.987 13.2504C27.4357 13.1012 27.6761 12.6162 27.5265 12.1738L24.3 2.51577C24.1505 2.06805 23.6644 1.8282 23.221 1.97744L19.9571 3.06476L21.7253 8.36281L18.4828 9.43414L16.7146 4.1361L13.424 5.22875C12.9753 5.37799 12.7349 5.86303 12.8845 6.30542L15.7157 14.8015ZM30.7263 17.3972L30.1814 15.7769C30.0318 15.3291 29.5457 15.0893 29.1023 15.2385L17.6975 19.0335C16.7787 17.8609 15.3685 17.0934 13.7713 17.0614L8.46147 1.16728C8.22643 0.469042 7.57473 0 6.83756 0H0.854694C0.384613 0 0 0.383762 0 0.852804V2.55841C0 3.02745 0.384613 3.41122 0.854694 3.41122H5.60359L10.5288 18.1594C9.13455 19.2467 8.30122 21.0163 8.60571 22.9831C8.93156 25.0831 10.6303 26.8367 12.7349 27.2044C15.9507 27.7748 18.7338 25.3496 18.7926 22.2688L30.1867 18.4739C30.6301 18.3246 30.8758 17.8449 30.7263 17.3972ZM13.6751 24.7313C12.2595 24.7313 11.111 23.5854 11.111 22.1729C11.111 20.7604 12.2595 19.6145 13.6751 19.6145C15.0907 19.6145 16.2392 20.7604 16.2392 22.1729C16.2392 23.5854 15.0907 24.7313 13.6751 24.7313Z" transform="translate(0 0.106323)" fill="white"/>
</svg>
